<svg xmlns="http://www.w3.org/2000/svg" xmlns:xlink="http://www.w3.org/1999/xlink" width="500" zoomAndPan="magnify" viewBox="0 0 375 323.999988" height="432" preserveAspectRatio="xMidYMid meet" version="1.0"><defs><g/></defs><g fill="#ff5757" fill-opacity="1"><g transform="translate(193.473419, 167.576984)"><g><path d="M 5.09375 0 L 3.765625 0 L 3.765625 -10.25 L 0.140625 -10.25 L 0.140625 -11.421875 L 8.703125 -11.421875 L 8.703125 -10.25 L 5.09375 -10.25 Z M 5.09375 0 "/></g></g></g><g fill="#ff5757" fill-opacity="1"><g transform="translate(202.322825, 167.576984)"><g><path d="M 5 0.15625 C 3.726562 0.15625 2.726562 -0.226562 2 -1 C 1.269531 -1.769531 0.90625 -2.84375 0.90625 -4.21875 C 0.90625 -5.59375 1.242188 -6.6875 1.921875 -7.5 C 2.597656 -8.3125 3.507812 -8.71875 4.65625 -8.71875 C 5.726562 -8.71875 6.578125 -8.363281 7.203125 -7.65625 C 7.828125 -6.957031 8.140625 -6.03125 8.140625 -4.875 L 8.140625 -4.046875 L 2.25 -4.046875 C 2.269531 -3.046875 2.519531 -2.285156 3 -1.765625 C 3.488281 -1.242188 4.171875 -0.984375 5.046875 -0.984375 C 5.960938 -0.984375 6.875 -1.175781 7.78125 -1.5625 L 7.78125 -0.40625 C 7.320312 -0.207031 6.882812 -0.0664062 6.46875 0.015625 C 6.0625 0.109375 5.570312 0.15625 5 0.15625 Z M 4.640625 -7.640625 C 3.953125 -7.640625 3.40625 -7.414062 3 -6.96875 C 2.59375 -6.519531 2.351562 -5.898438 2.28125 -5.109375 L 6.75 -5.109375 C 6.75 -5.921875 6.566406 -6.546875 6.203125 -6.984375 C 5.835938 -7.421875 5.316406 -7.640625 4.640625 -7.640625 Z M 4.640625 -7.640625 "/></g></g></g><g fill="#ff5757" fill-opacity="1"><g transform="translate(211.297201, 167.576984)"><g><path d="M 3.4375 -4.390625 L 0.46875 -8.5625 L 1.9375 -8.5625 L 4.203125 -5.28125 L 6.453125 -8.5625 L 7.90625 -8.5625 L 4.9375 -4.390625 L 8.0625 0 L 6.59375 0 L 4.203125 -3.46875 L 1.78125 0 L 0.3125 0 Z M 3.4375 -4.390625 "/></g></g></g><g fill="#ff5757" fill-opacity="1"><g transform="translate(219.677972, 167.576984)"><g><path d="M 4.140625 -0.921875 C 4.367188 -0.921875 4.585938 -0.9375 4.796875 -0.96875 C 5.015625 -1 5.1875 -1.035156 5.3125 -1.078125 L 5.3125 -0.078125 C 5.175781 -0.00390625 4.96875 0.0507812 4.6875 0.09375 C 4.414062 0.132812 4.171875 0.15625 3.953125 0.15625 C 2.296875 0.15625 1.46875 -0.71875 1.46875 -2.46875 L 1.46875 -7.5625 L 0.25 -7.5625 L 0.25 -8.1875 L 1.46875 -8.71875 L 2.015625 -10.546875 L 2.765625 -10.546875 L 2.765625 -8.5625 L 5.25 -8.5625 L 5.25 -7.5625 L 2.765625 -7.5625 L 2.765625 -2.515625 C 2.765625 -2.003906 2.882812 -1.609375 3.125 -1.328125 C 3.375 -1.054688 3.710938 -0.921875 4.140625 -0.921875 Z M 4.140625 -0.921875 "/></g></g></g><g fill="#ff5757" fill-opacity="1"><g transform="translate(225.325036, 167.576984)"><g><path d="M 8.765625 -4.296875 C 8.765625 -2.898438 8.410156 -1.804688 7.703125 -1.015625 C 7.003906 -0.234375 6.035156 0.15625 4.796875 0.15625 C 4.035156 0.15625 3.359375 -0.0195312 2.765625 -0.375 C 2.171875 -0.738281 1.710938 -1.253906 1.390625 -1.921875 C 1.066406 -2.597656 0.90625 -3.390625 0.90625 -4.296875 C 0.90625 -5.691406 1.253906 -6.773438 1.953125 -7.546875 C 2.648438 -8.328125 3.617188 -8.71875 4.859375 -8.71875 C 6.054688 -8.71875 7.003906 -8.316406 7.703125 -7.515625 C 8.410156 -6.722656 8.765625 -5.648438 8.765625 -4.296875 Z M 2.25 -4.296875 C 2.25 -3.203125 2.46875 -2.367188 2.90625 -1.796875 C 3.34375 -1.222656 3.984375 -0.9375 4.828125 -0.9375 C 5.679688 -0.9375 6.328125 -1.21875 6.765625 -1.78125 C 7.203125 -2.351562 7.421875 -3.191406 7.421875 -4.296875 C 7.421875 -5.378906 7.203125 -6.203125 6.765625 -6.765625 C 6.328125 -7.335938 5.675781 -7.625 4.8125 -7.625 C 3.96875 -7.625 3.328125 -7.34375 2.890625 -6.78125 C 2.460938 -6.226562 2.25 -5.398438 2.25 -4.296875 Z M 2.25 -4.296875 "/></g></g></g><path fill="#ff5757" d="M 213.765625 115.761719 C 213.839844 111.433594 214.371094 102.476562 214.296875 96.101562 C 201.847656 119.328125 179.605469 125.023438 158.503906 118.492188 C 172.546875 120.164062 185.449219 113.484375 187.574219 84.867188 C 188.867188 68.316406 194.863281 61.105469 201.238281 58.222656 C 199.722656 51.617188 199.265625 44.707031 200.9375 38.257812 C 211.109375 0.0742188 291.800781 16.925781 272.214844 25.125 C 259.464844 30.4375 248.152344 44.707031 250.277344 42.734375 C 275.175781 19.582031 277.53125 34.082031 279.125 42.734375 C 280.945312 52.453125 274.875 56.550781 279.125 69.988281 C 287.777344 76.4375 280.71875 77.652344 280.71875 77.652344 C 280.113281 79.855469 281.023438 84.789062 279.125 84.867188 C 275.9375 85.015625 277.152344 88.738281 279.125 89.191406 C 270.851562 116.066406 268.117188 111.664062 253.316406 104.980469 C 225 158.5 304.480469 148.78125 291.042969 182.410156 C 289.753906 185.597656 288.765625 190.152344 288.007812 195.695312 C 283.070312 192.128906 278.214844 187.875 275.707031 185.371094 C 276.695312 188.027344 281.933594 196.757812 292.941406 202.90625 C 300.683594 210.195312 307.136719 215.054688 310.246094 214.75 C 316.320312 214.140625 326.1875 206.09375 335.449219 195.621094 C 315.941406 194.40625 300.457031 178.160156 300.457031 158.347656 C 300.457031 149.542969 303.492188 141.417969 308.652344 134.964844 C 315.03125 129.804688 323.152344 126.769531 332.035156 126.769531 C 352.605469 126.769531 369.382812 143.46875 369.382812 164.117188 C 369.382812 172.921875 366.347656 181.042969 361.183594 187.496094 C 357.921875 190.078125 354.277344 192.128906 350.328125 193.570312 C 338.5625 217.179688 320.648438 248.226562 309.488281 244.960938 C 302.429688 242.835938 294.609375 238.207031 286.640625 232.285156 C 287.703125 265.152344 294.308594 304.25 308.578125 323.832031 L 188.5625 323.832031 C 215.207031 301.820312 217.636719 266.976562 213.765625 246.402344 C 189.703125 241.089844 161.765625 232.816406 163.058594 222.71875 C 169.8125 169.125 185.980469 145.367188 200.785156 129.957031 L 201.011719 130.410156 C 200.9375 130.261719 200.9375 130.03125 200.9375 129.878906 C 204.503906 126.160156 208.070312 122.898438 211.335938 119.785156 C 215.433594 117.507812 219.761719 115.609375 222.34375 114.699219 C 220.976562 114.472656 217.789062 114.621094 213.765625 115.761719 Z M 201.621094 181.726562 C 194.863281 193.722656 186.363281 208.449219 188.5625 211.484375 C 191.75 215.964844 202.226562 225.832031 210.121094 231.375 C 206.78125 219.457031 201.847656 183.550781 201.621094 181.726562 Z M 308.882812 134.585938 C 315.714844 126.3125 326.113281 121 337.652344 121 C 358.222656 121 375 137.699219 375 158.347656 C 375 169.277344 370.292969 179.070312 362.855469 185.902344 C 368.167969 179.449219 371.433594 171.175781 371.433594 162.144531 C 371.433594 141.570312 354.730469 124.792969 334.082031 124.792969 C 324.367188 124.792969 315.5625 128.515625 308.882812 134.585938 Z M 337.652344 140.433594 C 347.519531 140.433594 355.566406 148.480469 355.566406 158.347656 C 355.566406 168.214844 347.519531 176.261719 337.652344 176.261719 C 327.785156 176.261719 319.738281 168.214844 319.738281 158.347656 C 319.738281 148.480469 327.785156 140.433594 337.652344 140.433594 Z M 330.441406 153.335938 C 332.035156 151.058594 334.691406 149.542969 337.726562 149.542969 C 342.585938 149.542969 346.535156 153.488281 346.535156 158.347656 C 346.535156 162.066406 344.257812 165.253906 340.992188 166.546875 C 341.980469 165.101562 342.585938 163.433594 342.585938 161.535156 C 342.585938 156.675781 338.636719 152.730469 333.78125 152.730469 C 332.566406 152.730469 331.425781 152.957031 330.441406 153.335938 Z M 330.441406 153.335938 " fill-opacity="1" fill-rule="evenodd"/><path fill="#545454" d="M 126.847656 273.429688 C 126.542969 267.507812 126.164062 261.207031 125.859375 254.832031 C 127.453125 250.125 129.730469 245.339844 131.175781 242.761719 C 129.429688 243.976562 125.101562 248.453125 122.367188 255.4375 C 116.980469 269.253906 107.1875 271.53125 105.210938 271.605469 C 91.320312 272.289062 58.984375 236.230469 36.4375 216.875 C 16.09375 215.433594 0 198.503906 0 177.78125 C 0 156.144531 17.535156 138.609375 39.171875 138.609375 C 60.804688 138.609375 78.339844 156.144531 78.339844 177.78125 C 78.339844 188.40625 74.089844 198.125 67.179688 205.183594 L 74.011719 210.726562 C 80.085938 215.660156 87.753906 217.480469 94.964844 216.34375 C 97.773438 216.496094 100.355469 216.949219 102.707031 217.558594 C 101.265625 216.570312 99.441406 215.8125 97.394531 215.128906 C 99.292969 208.902344 103.617188 202.300781 109.917969 196.683594 C 112.574219 194.328125 115.308594 192.355469 118.117188 190.761719 C 120.621094 189.546875 123.128906 188.558594 125.558594 187.800781 L 125.632812 187.117188 L 125.632812 186.8125 C 123.128906 186.890625 120.320312 187.421875 117.359375 188.332031 C 113.335938 180.96875 114.246094 168.824219 120.394531 157.4375 C 126.164062 146.734375 134.96875 139.519531 142.941406 138.078125 C 144.382812 136.5625 145.976562 135.117188 147.722656 133.828125 C 153.035156 129.804688 158.957031 126.390625 164.800781 123.429688 C 179.148438 125.78125 194.179688 122.214844 205.113281 113.105469 C 205.261719 114.089844 205.414062 115.003906 205.644531 115.914062 C 206.402344 116.75 207.160156 117.582031 207.84375 118.417969 C 204.277344 121.757812 200.785156 125.097656 197.445312 128.589844 C 174.367188 152.957031 164.726562 186.28125 160.097656 219 C 159.261719 225.300781 161.691406 230.160156 165.789062 233.269531 C 178.921875 242.988281 195.167969 245.722656 210.730469 249.136719 C 214.296875 272.667969 208.679688 298.175781 192.28125 315.558594 C 190.839844 317.152344 190.382812 317.609375 187.425781 320.1875 C 185.980469 321.402344 185.296875 322.695312 185.222656 323.757812 L 122.519531 323.757812 C 124.191406 321.402344 125.40625 317.988281 126.164062 313.585938 C 133.601562 309.03125 139.144531 310.167969 138.839844 309.714844 C 137.398438 307.132812 132.84375 305.460938 126.769531 308.5 C 127.152344 304.628906 127.300781 300.226562 127.300781 295.367188 C 136.335938 288.308594 143.472656 289.824219 143.167969 289.292969 C 141.421875 286.179688 135.199219 284.433594 127.300781 290.507812 C 127.226562 286.5625 127.074219 282.386719 126.921875 277.984375 C 138.007812 265.835938 147.949219 268.039062 147.570312 267.429688 C 145.671875 263.710938 137.019531 261.890625 126.847656 273.429688 Z M 13.664062 157.285156 C 19.28125 152.804688 26.417969 150.074219 34.160156 150.074219 C 52.300781 150.074219 66.953125 164.800781 66.953125 182.867188 C 66.953125 190.609375 64.21875 197.746094 59.742188 203.363281 C 54.125 207.839844 46.988281 210.574219 39.246094 210.574219 C 21.101562 210.574219 6.453125 195.847656 6.453125 177.78125 C 6.453125 170.039062 9.109375 162.902344 13.664062 157.285156 Z M 13.96875 156.90625 C 19.964844 149.617188 29.074219 144.988281 39.246094 144.988281 C 57.386719 144.988281 72.039062 159.714844 72.039062 177.78125 C 72.039062 187.34375 67.941406 196 61.335938 201.996094 C 66.042969 196.304688 68.851562 189.015625 68.851562 181.121094 C 68.851562 162.976562 54.125 148.328125 36.058594 148.328125 C 27.554688 148.328125 19.8125 151.515625 13.96875 156.90625 Z M 39.246094 162.066406 C 47.898438 162.066406 54.960938 169.125 54.960938 177.78125 C 54.960938 186.433594 47.898438 193.492188 39.246094 193.492188 C 30.59375 193.492188 23.53125 186.433594 23.53125 177.78125 C 23.53125 169.125 30.59375 162.066406 39.246094 162.066406 Z M 32.871094 173.378906 C 34.234375 171.328125 36.589844 170.039062 39.246094 170.039062 C 43.496094 170.039062 46.988281 173.53125 46.988281 177.78125 C 46.988281 181.042969 44.9375 183.851562 42.128906 184.992188 C 42.964844 183.777344 43.496094 182.257812 43.496094 180.589844 C 43.496094 176.339844 40.003906 172.847656 35.753906 172.847656 C 34.765625 172.847656 33.78125 173 32.871094 173.378906 Z M 167.761719 114.699219 C 166.320312 111.738281 164.421875 108.472656 162.070312 104.90625 C 152.429688 111.128906 146.507812 113.179688 143.851562 93.671875 L 140.285156 90.40625 C 142.03125 86.992188 145.140625 86.460938 140.285156 85.09375 L 137.246094 74.085938 C 130.945312 75.605469 129.199219 73.554688 137.246094 63.6875 C 134.96875 51.691406 136.5625 51.921875 137.246094 43.875 C 132.464844 36.890625 136.792969 27.933594 143.851562 23.453125 C 158.503906 14.269531 190.914062 8.5 206.097656 23.300781 C 205.492188 23.832031 204.960938 24.441406 204.429688 25.046875 C 193.726562 36.890625 197.445312 56.398438 197.445312 56.398438 C 190.15625 61.03125 186.589844 69.53125 185.148438 77.730469 C 184.84375 79.324219 184.765625 79.550781 184.464844 82.890625 C 183.550781 92.988281 182.488281 105.589844 173.304688 112.117188 C 171.632812 113.40625 169.738281 114.167969 167.761719 114.699219 Z M 167.761719 114.699219 " fill-opacity="1" fill-rule="evenodd"/></svg>